# xmcd
#
# Track frame offsets:
#	150
#	11256
#	27149
#	43592
#	66973
#	80309
#	94495
#	110875
#	120234
#	129731
#	143388
#	157999
#	173512
#	188248
#	206210
#	220180
#	234463
#	251171
#	265963
#	279689
#
# Disc length: 3925 seconds
#
# Revision: 0
# Processed by: cddbd v1.5.2PL0 Copyright (c) Steve Scherf et al.
# Submitted via: EZCDAudioConverter 7.0.0.1
#
DISCID=1a0f5314
DTITLE=DZIESMU KRŪZE #3
DYEAR=1900
DGENRE=
TTITLE0=BET BET - Mazs Cinītis
TTITLE1=KLAIDONIS - Aizvijas Ceļi
TTITLE2=GUNTARS RAČS and OLGA RAJECKA - Divi Krasti
TTITLE3=SESTĀ JŪDZE - Pieci Soļi, Nedēļa Vai Mūžs
TTITLE4=BET BET - Dziesmiņa Par Košanu
TTITLE5=CREDO and LIENE ŠOMASE - Līgo
TTITLE6=LABVĒLĪGAIS TIPS - Mūsu Limuzīns
TTITLE7=MADARA BOTMANE - Precē Mani Čigānzēn
TTITLE8=MIERS UN BĒRZIŅŠ - Miers Un Bērziņš
TTITLE9=TĀLBRAUCĒJI - Vasaras Vidū
TTITLE10=VAIDAVA - Visi Mani Radi Raud
TTITLE11=EVIJA SLOKA - Visu Vai Neko
TTITLE12=MIERS UN BĒRZIŅŠ - Tu Tieši Tāpēc
TTITLE13=LABVĒLĪGAIS TIPS - Tu Man Virsū Negāzies
TTITLE14=MADARA BOTMANE - Krogs
TTITLE15=KRISTĪNE PRAULIŅA - No Rieta Līdz Rītausmai
TTITLE16=HARIJS SPANOVSKIS - Paskaties Apkārt
TTITLE17=VAIDAVA - Kafijpupiņas
TTITLE18=TĀLBRAUCĒJI - Tā Notiek
TTITLE19=JĀNIS MOISEJS - Saules Dimanti
EXTD=
EXTT0=
EXTT1=
EXTT2=
EXTT3=
EXTT4=
EXTT5=
EXTT6=
EXTT7=
EXTT8=
EXTT9=
EXTT10=
EXTT11=
EXTT12=
EXTT13=
EXTT14=
EXTT15=
EXTT16=
EXTT17=
EXTT18=
EXTT19=
PLAYORDER=
